<?xml version="1.0" encoding="UTF-8" standalone="no"?>
<!DOCTYPE svg PUBLIC "-//W3C//DTD SVG 1.1//EN"
 "http://www.w3.org/Graphics/SVG/1.1/DTD/svg11.dtd">
<!-- Generated by graphviz version 2.43.0 (0)
 -->
<!-- Title: dependency&#45;cruiser output Pages: 1 -->
<svg width="1247pt" height="582pt"
 viewBox="0.00 0.00 1246.50 582.00" xmlns="http://www.w3.org/2000/svg" xmlns:xlink="http://www.w3.org/1999/xlink">
<g id="graph0" class="graph" transform="scale(1 1) rotate(0) translate(4 578)">
<title>dependency&#45;cruiser output</title>
<polygon fill="white" stroke="transparent" points="-4,4 -4,-578 1242.5,-578 1242.5,4 -4,4"/>
<g id="clust1" class="cluster">
<title>cluster_src</title>
<path fill="#ffffff" stroke="black" stroke-width="2" d="M20,-8C20,-8 1218.5,-8 1218.5,-8 1224.5,-8 1230.5,-14 1230.5,-20 1230.5,-20 1230.5,-554 1230.5,-554 1230.5,-560 1224.5,-566 1218.5,-566 1218.5,-566 20,-566 20,-566 14,-566 8,-560 8,-554 8,-554 8,-20 8,-20 8,-14 14,-8 20,-8"/>
<text text-anchor="middle" x="619.25" y="-554.8" font-family="Helvetica,sans-Serif" font-weight="bold" font-size="9.00">src</text>
</g>
<g id="clust2" class="cluster">
<title>cluster_src/app</title>
<path fill="#ffffff" stroke="black" stroke-width="2" d="M28,-219C28,-219 164.5,-219 164.5,-219 170.5,-219 176.5,-225 176.5,-231 176.5,-231 176.5,-319 176.5,-319 176.5,-325 170.5,-331 164.5,-331 164.5,-331 28,-331 28,-331 22,-331 16,-325 16,-319 16,-319 16,-231 16,-231 16,-225 22,-219 28,-219"/>
<text text-anchor="middle" x="96.25" y="-319.8" font-family="Helvetica,sans-Serif" font-weight="bold" font-size="9.00">app</text>
</g>
<g id="clust3" class="cluster">
<title>cluster_src/entities</title>
<path fill="#ffffff" stroke="black" stroke-width="2" d="M746.5,-16C746.5,-16 1071.5,-16 1071.5,-16 1077.5,-16 1083.5,-22 1083.5,-28 1083.5,-28 1083.5,-288 1083.5,-288 1083.5,-294 1077.5,-300 1071.5,-300 1071.5,-300 746.5,-300 746.5,-300 740.5,-300 734.5,-294 734.5,-288 734.5,-288 734.5,-28 734.5,-28 734.5,-22 740.5,-16 746.5,-16"/>
<text text-anchor="middle" x="909" y="-288.8" font-family="Helvetica,sans-Serif" font-weight="bold" font-size="9.00">entities</text>
</g>
<g id="clust4" class="cluster">
<title>cluster_src/entities/map</title>
<path fill="#ffffff" stroke="black" stroke-width="2" d="M754.5,-24C754.5,-24 1063.5,-24 1063.5,-24 1069.5,-24 1075.5,-30 1075.5,-36 1075.5,-36 1075.5,-168 1075.5,-168 1075.5,-174 1069.5,-180 1063.5,-180 1063.5,-180 754.5,-180 754.5,-180 748.5,-180 742.5,-174 742.5,-168 742.5,-168 742.5,-36 742.5,-36 742.5,-30 748.5,-24 754.5,-24"/>
<text text-anchor="middle" x="909" y="-168.8" font-family="Helvetica,sans-Serif" font-weight="bold" font-size="9.00">map</text>
</g>
<g id="clust5" class="cluster">
<title>cluster_src/entities/map/model</title>
<path fill="#ffffff" stroke="black" stroke-width="2" d="M824.5,-32C824.5,-32 938.5,-32 938.5,-32 944.5,-32 950.5,-38 950.5,-44 950.5,-44 950.5,-72 950.5,-72 950.5,-78 944.5,-84 938.5,-84 938.5,-84 824.5,-84 824.5,-84 818.5,-84 812.5,-78 812.5,-72 812.5,-72 812.5,-44 812.5,-44 812.5,-38 818.5,-32 824.5,-32"/>
<text text-anchor="middle" x="881.5" y="-72.8" font-family="Helvetica,sans-Serif" font-weight="bold" font-size="9.00">model</text>
</g>
<g id="clust6" class="cluster">
<title>cluster_src/entities/map/ui</title>
<path fill="#ffffff" stroke="black" stroke-width="2" d="M858.5,-102C858.5,-102 904.5,-102 904.5,-102 910.5,-102 916.5,-108 916.5,-114 916.5,-114 916.5,-142 916.5,-142 916.5,-148 910.5,-154 904.5,-154 904.5,-154 858.5,-154 858.5,-154 852.5,-154 846.5,-148 846.5,-142 846.5,-142 846.5,-114 846.5,-114 846.5,-108 852.5,-102 858.5,-102"/>
<text text-anchor="middle" x="881.5" y="-142.8" font-family="Helvetica,sans-Serif" font-weight="bold" font-size="9.00">ui</text>
</g>
<g id="clust7" class="cluster">
<title>cluster_src/entities/point</title>
<path fill="#ffffff" stroke="black" stroke-width="2" d="M754.5,-188C754.5,-188 913.5,-188 913.5,-188 919.5,-188 925.5,-194 925.5,-200 925.5,-200 925.5,-262 925.5,-262 925.5,-268 919.5,-274 913.5,-274 913.5,-274 754.5,-274 754.5,-274 748.5,-274 742.5,-268 742.5,-262 742.5,-262 742.5,-200 742.5,-200 742.5,-194 748.5,-188 754.5,-188"/>
<text text-anchor="middle" x="834" y="-262.8" font-family="Helvetica,sans-Serif" font-weight="bold" font-size="9.00">point</text>
</g>
<g id="clust8" class="cluster">
<title>cluster_src/entities/point/ui</title>
<path fill="#ffffff" stroke="black" stroke-width="2" d="M857.5,-196C857.5,-196 905.5,-196 905.5,-196 911.5,-196 917.5,-202 917.5,-208 917.5,-208 917.5,-236 917.5,-236 917.5,-242 911.5,-248 905.5,-248 905.5,-248 857.5,-248 857.5,-248 851.5,-248 845.5,-242 845.5,-236 845.5,-236 845.5,-208 845.5,-208 845.5,-202 851.5,-196 857.5,-196"/>
<text text-anchor="middle" x="881.5" y="-236.8" font-family="Helvetica,sans-Serif" font-weight="bold" font-size="9.00">ui</text>
</g>
<g id="clust9" class="cluster">
<title>cluster_src/features</title>
<path fill="#ffffff" stroke="black" stroke-width="2" d="M490.5,-127C490.5,-127 714.5,-127 714.5,-127 720.5,-127 726.5,-133 726.5,-139 726.5,-139 726.5,-295 726.5,-295 726.5,-301 720.5,-307 714.5,-307 714.5,-307 490.5,-307 490.5,-307 484.5,-307 478.5,-301 478.5,-295 478.5,-295 478.5,-139 478.5,-139 478.5,-133 484.5,-127 490.5,-127"/>
<text text-anchor="middle" x="602.5" y="-295.8" font-family="Helvetica,sans-Serif" font-weight="bold" font-size="9.00">features</text>
</g>
<g id="clust10" class="cluster">
<title>cluster_src/features/show&#45;click&#45;coords</title>
<path fill="#ffffff" stroke="black" stroke-width="2" d="M498.5,-135C498.5,-135 706.5,-135 706.5,-135 712.5,-135 718.5,-141 718.5,-147 718.5,-147 718.5,-269 718.5,-269 718.5,-275 712.5,-281 706.5,-281 706.5,-281 498.5,-281 498.5,-281 492.5,-281 486.5,-275 486.5,-269 486.5,-269 486.5,-147 486.5,-147 486.5,-141 492.5,-135 498.5,-135"/>
<text text-anchor="middle" x="602.5" y="-269.8" font-family="Helvetica,sans-Serif" font-weight="bold" font-size="9.00">show&#45;click&#45;coords</text>
</g>
<g id="clust11" class="cluster">
<title>cluster_src/features/show&#45;click&#45;coords/model</title>
<path fill="#ffffff" stroke="black" stroke-width="2" d="M593.5,-143C593.5,-143 698.5,-143 698.5,-143 704.5,-143 710.5,-149 710.5,-155 710.5,-155 710.5,-183 710.5,-183 710.5,-189 704.5,-195 698.5,-195 698.5,-195 593.5,-195 593.5,-195 587.5,-195 581.5,-189 581.5,-183 581.5,-183 581.5,-155 581.5,-155 581.5,-149 587.5,-143 593.5,-143"/>
<text text-anchor="middle" x="646" y="-183.8" font-family="Helvetica,sans-Serif" font-weight="bold" font-size="9.00">model</text>
</g>
<g id="clust12" class="cluster">
<title>cluster_src/features/show&#45;click&#45;coords/ui</title>
<path fill="#ffffff" stroke="black" stroke-width="2" d="M602.5,-203C602.5,-203 689.5,-203 689.5,-203 695.5,-203 701.5,-209 701.5,-215 701.5,-215 701.5,-243 701.5,-243 701.5,-249 695.5,-255 689.5,-255 689.5,-255 602.5,-255 602.5,-255 596.5,-255 590.5,-249 590.5,-243 590.5,-243 590.5,-215 590.5,-215 590.5,-209 596.5,-203 602.5,-203"/>
<text text-anchor="middle" x="646" y="-243.8" font-family="Helvetica,sans-Serif" font-weight="bold" font-size="9.00">ui</text>
</g>
<g id="clust13" class="cluster">
<title>cluster_src/pages</title>
<path fill="#ffffff" stroke="black" stroke-width="2" d="M105,-339C105,-339 280.5,-339 280.5,-339 286.5,-339 292.5,-345 292.5,-351 292.5,-351 292.5,-473 292.5,-473 292.5,-479 286.5,-485 280.5,-485 280.5,-485 105,-485 105,-485 99,-485 93,-479 93,-473 93,-473 93,-351 93,-351 93,-345 99,-339 105,-339"/>
<text text-anchor="middle" x="192.75" y="-473.8" font-family="Helvetica,sans-Serif" font-weight="bold" font-size="9.00">pages</text>
</g>
<g id="clust14" class="cluster">
<title>cluster_src/pages/home&#45;page</title>
<path fill="#ffffff" stroke="black" stroke-width="2" d="M113,-347C113,-347 268.5,-347 268.5,-347 274.5,-347 280.5,-353 280.5,-359 280.5,-359 280.5,-387 280.5,-387 280.5,-393 274.5,-399 268.5,-399 268.5,-399 113,-399 113,-399 107,-399 101,-393 101,-387 101,-387 101,-359 101,-359 101,-353 107,-347 113,-347"/>
<text text-anchor="middle" x="190.75" y="-387.8" font-family="Helvetica,sans-Serif" font-weight="bold" font-size="9.00">home&#45;page</text>
</g>
<g id="clust15" class="cluster">
<title>cluster_src/pages/loading&#45;page</title>
<path fill="#ffffff" stroke="black" stroke-width="2" d="M113,-407C113,-407 272.5,-407 272.5,-407 278.5,-407 284.5,-413 284.5,-419 284.5,-419 284.5,-447 284.5,-447 284.5,-453 278.5,-459 272.5,-459 272.5,-459 113,-459 113,-459 107,-459 101,-453 101,-447 101,-447 101,-419 101,-419 101,-413 107,-407 113,-407"/>
<text text-anchor="middle" x="192.75" y="-447.8" font-family="Helvetica,sans-Serif" font-weight="bold" font-size="9.00">loading&#45;page</text>
</g>
<g id="clust16" class="cluster">
<title>cluster_src/shared</title>
<path fill="#ffffff" stroke="black" stroke-width="2" d="M970.5,-308C970.5,-308 1210.5,-308 1210.5,-308 1216.5,-308 1222.5,-314 1222.5,-320 1222.5,-320 1222.5,-528 1222.5,-528 1222.5,-534 1216.5,-540 1210.5,-540 1210.5,-540 970.5,-540 970.5,-540 964.5,-540 958.5,-534 958.5,-528 958.5,-528 958.5,-320 958.5,-320 958.5,-314 964.5,-308 970.5,-308"/>
<text text-anchor="middle" x="1090.5" y="-528.8" font-family="Helvetica,sans-Serif" font-weight="bold" font-size="9.00">shared</text>
</g>
<g id="clust17" class="cluster">
<title>cluster_src/shared/lib</title>
<path fill="#ffffff" stroke="black" stroke-width="2" d="M1008.5,-462C1008.5,-462 1177,-462 1177,-462 1183,-462 1189,-468 1189,-474 1189,-474 1189,-502 1189,-502 1189,-508 1183,-514 1177,-514 1177,-514 1008.5,-514 1008.5,-514 1002.5,-514 996.5,-508 996.5,-502 996.5,-502 996.5,-474 996.5,-474 996.5,-468 1002.5,-462 1008.5,-462"/>
<text text-anchor="middle" x="1092.75" y="-502.8" font-family="Helvetica,sans-Serif" font-weight="bold" font-size="9.00">lib</text>
</g>
<g id="clust18" class="cluster">
<title>cluster_src/shared/ui</title>
<path fill="#ffffff" stroke="black" stroke-width="2" d="M978.5,-342C978.5,-342 1202.5,-342 1202.5,-342 1208.5,-342 1214.5,-348 1214.5,-354 1214.5,-354 1214.5,-442 1214.5,-442 1214.5,-448 1208.5,-454 1202.5,-454 1202.5,-454 978.5,-454 978.5,-454 972.5,-454 966.5,-448 966.5,-442 966.5,-442 966.5,-354 966.5,-354 966.5,-348 972.5,-342 978.5,-342"/>
<text text-anchor="middle" x="1090.5" y="-442.8" font-family="Helvetica,sans-Serif" font-weight="bold" font-size="9.00">ui</text>
</g>
<g id="clust19" class="cluster">
<title>cluster_src/shared/ui/layouts</title>
<path fill="#ffffff" stroke="black" stroke-width="2" d="M986.5,-376C986.5,-376 1076.5,-376 1076.5,-376 1082.5,-376 1088.5,-382 1088.5,-388 1088.5,-388 1088.5,-416 1088.5,-416 1088.5,-422 1082.5,-428 1076.5,-428 1076.5,-428 986.5,-428 986.5,-428 980.5,-428 974.5,-422 974.5,-416 974.5,-416 974.5,-388 974.5,-388 974.5,-382 980.5,-376 986.5,-376"/>
<text text-anchor="middle" x="1031.5" y="-416.8" font-family="Helvetica,sans-Serif" font-weight="bold" font-size="9.00">layouts</text>
</g>
<g id="clust20" class="cluster">
<title>cluster_src/widgets</title>
<path fill="#ffffff" stroke="black" stroke-width="2" d="M312.5,-315C312.5,-315 561.5,-315 561.5,-315 567.5,-315 573.5,-321 573.5,-327 573.5,-327 573.5,-389 573.5,-389 573.5,-395 567.5,-401 561.5,-401 561.5,-401 312.5,-401 312.5,-401 306.5,-401 300.5,-395 300.5,-389 300.5,-389 300.5,-327 300.5,-327 300.5,-321 306.5,-315 312.5,-315"/>
<text text-anchor="middle" x="437" y="-389.8" font-family="Helvetica,sans-Serif" font-weight="bold" font-size="9.00">widgets</text>
</g>
<g id="clust21" class="cluster">
<title>cluster_src/widgets/map</title>
<path fill="#ffffff" stroke="black" stroke-width="2" d="M320.5,-323C320.5,-323 553.5,-323 553.5,-323 559.5,-323 565.5,-329 565.5,-335 565.5,-335 565.5,-363 565.5,-363 565.5,-369 559.5,-375 553.5,-375 553.5,-375 320.5,-375 320.5,-375 314.5,-375 308.5,-369 308.5,-363 308.5,-363 308.5,-335 308.5,-335 308.5,-329 314.5,-323 320.5,-323"/>
<text text-anchor="middle" x="437" y="-363.8" font-family="Helvetica,sans-Serif" font-weight="bold" font-size="9.00">map</text>
</g>
<!-- src/app/globals.css -->
<g id="node1" class="node">
<title>src/app/globals.css</title>
<g id="a_node1"><a xlink:href="src/app/globals.css" xlink:title="globals.css">
<path fill="#ffffcc" stroke="black" d="M162.5,-245C162.5,-245 109.5,-245 109.5,-245 106.5,-245 103.5,-242 103.5,-239 103.5,-239 103.5,-233 103.5,-233 103.5,-230 106.5,-227 109.5,-227 109.5,-227 162.5,-227 162.5,-227 165.5,-227 168.5,-230 168.5,-233 168.5,-233 168.5,-239 168.5,-239 168.5,-242 165.5,-245 162.5,-245"/>
<text text-anchor="start" x="111.5" y="-233.8" font-family="Helvetica,sans-Serif" font-size="9.00">globals.css</text>
</a>
</g>
</g>
<!-- src/app/layout.tsx -->
<g id="node2" class="node">
<title>src/app/layout.tsx</title>
<g id="a_node2"><a xlink:href="src/app/layout.tsx" xlink:title="layout.tsx">
<path fill="#bbfeff" stroke="black" d="M79,-245C79,-245 30,-245 30,-245 27,-245 24,-242 24,-239 24,-239 24,-233 24,-233 24,-230 27,-227 30,-227 30,-227 79,-227 79,-227 82,-227 85,-230 85,-233 85,-233 85,-239 85,-239 85,-242 82,-245 79,-245"/>
<text text-anchor="start" x="32" y="-233.8" font-family="Helvetica,sans-Serif" font-size="9.00">layout.tsx</text>
</a>
</g>
</g>
<!-- src/app/layout.tsx&#45;&gt;src/app/globals.css -->
<g id="edge1" class="edge">
<title>src/app/layout.tsx&#45;&gt;src/app/globals.css</title>
<path fill="none" stroke="#000000" stroke-width="2" stroke-opacity="0.200000" d="M85.1,-236C88.98,-236 93.01,-236 97,-236"/>
<polygon fill="#000000" fill-opacity="0.200000" stroke="#000000" stroke-width="2" stroke-opacity="0.200000" points="97.24,-238.1 103.24,-236 97.24,-233.9 97.24,-238.1"/>
</g>
<!-- src/app/loading.ts -->
<g id="node3" class="node">
<title>src/app/loading.ts</title>
<g id="a_node3"><a xlink:href="src/app/loading.ts" xlink:title="loading.ts">
<path fill="#ddfeff" stroke="black" d="M79,-305C79,-305 30,-305 30,-305 27,-305 24,-302 24,-299 24,-299 24,-293 24,-293 24,-290 27,-287 30,-287 30,-287 79,-287 79,-287 82,-287 85,-290 85,-293 85,-293 85,-299 85,-299 85,-302 82,-305 79,-305"/>
<text text-anchor="start" x="32" y="-293.8" font-family="Helvetica,sans-Serif" font-size="9.00">loading.ts</text>
</a>
</g>
</g>
<!-- src/pages/loading&#45;page/index.ts -->
<g id="node4" class="node">
<title>src/pages/loading&#45;page/index.ts</title>
<g id="a_node4"><a xlink:href="src/pages/loading-page/index.ts" xlink:title="index.ts">
<path fill="#ddfeff" stroke="black" d="M157,-433C157,-433 115,-433 115,-433 112,-433 109,-430 109,-427 109,-427 109,-421 109,-421 109,-418 112,-415 115,-415 115,-415 157,-415 157,-415 160,-415 163,-418 163,-421 163,-421 163,-427 163,-427 163,-430 160,-433 157,-433"/>
<text text-anchor="start" x="117.5" y="-421.8" font-family="Helvetica,sans-Serif" font-size="9.00">index.ts</text>
</a>
</g>
</g>
<!-- src/app/loading.ts&#45;&gt;src/pages/loading&#45;page/index.ts -->
<g id="edge2" class="edge">
<title>src/app/loading.ts&#45;&gt;src/pages/loading&#45;page/index.ts</title>
<path fill="none" stroke="#000000" stroke-width="2" stroke-opacity="0.200000" d="M56.47,-305.06C59.01,-324.88 67.56,-372.65 93,-402 96.33,-405.84 100.5,-409.12 104.92,-411.87"/>
<polygon fill="#000000" fill-opacity="0.200000" stroke="#000000" stroke-width="2" stroke-opacity="0.200000" points="103.92,-413.71 110.17,-414.86 105.99,-410.06 103.92,-413.71"/>
</g>
<!-- src/pages/loading&#45;page/loading&#45;page.tsx -->
<g id="node22" class="node">
<title>src/pages/loading&#45;page/loading&#45;page.tsx</title>
<g id="a_node22"><a xlink:href="src/pages/loading-page/loading-page.tsx" xlink:title="loading&#45;page.tsx">
<path fill="#bbfeff" stroke="black" d="M270.5,-433C270.5,-433 190.5,-433 190.5,-433 187.5,-433 184.5,-430 184.5,-427 184.5,-427 184.5,-421 184.5,-421 184.5,-418 187.5,-415 190.5,-415 190.5,-415 270.5,-415 270.5,-415 273.5,-415 276.5,-418 276.5,-421 276.5,-421 276.5,-427 276.5,-427 276.5,-430 273.5,-433 270.5,-433"/>
<text text-anchor="start" x="192.5" y="-421.8" font-family="Helvetica,sans-Serif" font-size="9.00">loading&#45;page.tsx</text>
</a>
</g>
</g>
<!-- src/pages/loading&#45;page/index.ts&#45;&gt;src/pages/loading&#45;page/loading&#45;page.tsx -->
<g id="edge21" class="edge">
<title>src/pages/loading&#45;page/index.ts&#45;&gt;src/pages/loading&#45;page/loading&#45;page.tsx</title>
<path fill="none" stroke="#000000" stroke-width="2" stroke-opacity="0.200000" d="M163.26,-424C168.02,-424 173.13,-424 178.32,-424"/>
<polygon fill="#000000" fill-opacity="0.200000" stroke="#000000" stroke-width="2" stroke-opacity="0.200000" points="178.44,-426.1 184.44,-424 178.44,-421.9 178.44,-426.1"/>
</g>
<!-- src/app/page.ts -->
<g id="node5" class="node">
<title>src/app/page.ts</title>
<g id="a_node5"><a xlink:href="src/app/page.ts" xlink:title="page.ts">
<path fill="#ddfeff" stroke="black" d="M75.5,-275C75.5,-275 33.5,-275 33.5,-275 30.5,-275 27.5,-272 27.5,-269 27.5,-269 27.5,-263 27.5,-263 27.5,-260 30.5,-257 33.5,-257 33.5,-257 75.5,-257 75.5,-257 78.5,-257 81.5,-260 81.5,-263 81.5,-263 81.5,-269 81.5,-269 81.5,-272 78.5,-275 75.5,-275"/>
<text text-anchor="start" x="37.5" y="-263.8" font-family="Helvetica,sans-Serif" font-size="9.00">page.ts</text>
</a>
</g>
</g>
<!-- src/pages/home&#45;page/index.ts -->
<g id="node6" class="node">
<title>src/pages/home&#45;page/index.ts</title>
<g id="a_node6"><a xlink:href="src/pages/home-page/index.ts" xlink:title="index.ts">
<path fill="#ddfeff" stroke="black" d="M157,-373C157,-373 115,-373 115,-373 112,-373 109,-370 109,-367 109,-367 109,-361 109,-361 109,-358 112,-355 115,-355 115,-355 157,-355 157,-355 160,-355 163,-358 163,-361 163,-361 163,-367 163,-367 163,-370 160,-373 157,-373"/>
<text text-anchor="start" x="117.5" y="-361.8" font-family="Helvetica,sans-Serif" font-size="9.00">index.ts</text>
</a>
</g>
</g>
<!-- src/app/page.ts&#45;&gt;src/pages/home&#45;page/index.ts -->
<g id="edge3" class="edge">
<title>src/app/page.ts&#45;&gt;src/pages/home&#45;page/index.ts</title>
<path fill="none" stroke="#000000" stroke-width="2" stroke-opacity="0.200000" d="M79.08,-275.19C81.34,-276.84 83.39,-278.76 85,-281 98.94,-300.32 80.54,-313.69 93,-334 97.33,-341.06 104.01,-346.93 110.78,-351.56"/>
<polygon fill="#000000" fill-opacity="0.200000" stroke="#000000" stroke-width="2" stroke-opacity="0.200000" points="109.74,-353.39 115.93,-354.85 112,-349.85 109.74,-353.39"/>
</g>
<!-- src/pages/home&#45;page/home&#45;page.tsx -->
<g id="node19" class="node">
<title>src/pages/home&#45;page/home&#45;page.tsx</title>
<g id="a_node19"><a xlink:href="src/pages/home-page/home-page.tsx" xlink:title="home&#45;page.tsx">
<path fill="#bbfeff" stroke="black" d="M266.5,-373C266.5,-373 194.5,-373 194.5,-373 191.5,-373 188.5,-370 188.5,-367 188.5,-367 188.5,-361 188.5,-361 188.5,-358 191.5,-355 194.5,-355 194.5,-355 266.5,-355 266.5,-355 269.5,-355 272.5,-358 272.5,-361 272.5,-361 272.5,-367 272.5,-367 272.5,-370 269.5,-373 266.5,-373"/>
<text text-anchor="start" x="196.5" y="-361.8" font-family="Helvetica,sans-Serif" font-size="9.00">home&#45;page.tsx</text>
</a>
</g>
</g>
<!-- src/pages/home&#45;page/index.ts&#45;&gt;src/pages/home&#45;page/home&#45;page.tsx -->
<g id="edge20" class="edge">
<title>src/pages/home&#45;page/index.ts&#45;&gt;src/pages/home&#45;page/home&#45;page.tsx</title>
<path fill="none" stroke="#000000" stroke-width="2" stroke-opacity="0.200000" d="M163.26,-364C169.23,-364 175.75,-364 182.3,-364"/>
<polygon fill="#000000" fill-opacity="0.200000" stroke="#000000" stroke-width="2" stroke-opacity="0.200000" points="182.3,-366.1 188.3,-364 182.3,-361.9 182.3,-366.1"/>
</g>
<!-- src/entities/map/constants.ts -->
<g id="node7" class="node">
<title>src/entities/map/constants.ts</title>
<g id="a_node7"><a xlink:href="src/entities/map/constants.ts" xlink:title="constants.ts">
<path fill="#ddfeff" stroke="black" d="M1061.5,-132C1061.5,-132 1001.5,-132 1001.5,-132 998.5,-132 995.5,-129 995.5,-126 995.5,-126 995.5,-120 995.5,-120 995.5,-117 998.5,-114 1001.5,-114 1001.5,-114 1061.5,-114 1061.5,-114 1064.5,-114 1067.5,-117 1067.5,-120 1067.5,-120 1067.5,-126 1067.5,-126 1067.5,-129 1064.5,-132 1061.5,-132"/>
<text text-anchor="start" x="1003.5" y="-120.8" font-family="Helvetica,sans-Serif" font-size="9.00">constants.ts</text>
</a>
</g>
</g>
<!-- src/entities/map/index.ts -->
<g id="node8" class="node">
<title>src/entities/map/index.ts</title>
<g id="a_node8"><a xlink:href="src/entities/map/index.ts" xlink:title="index.ts">
<path fill="#ddfeff" stroke="black" d="M798.5,-127C798.5,-127 756.5,-127 756.5,-127 753.5,-127 750.5,-124 750.5,-121 750.5,-121 750.5,-115 750.5,-115 750.5,-112 753.5,-109 756.5,-109 756.5,-109 798.5,-109 798.5,-109 801.5,-109 804.5,-112 804.5,-115 804.5,-115 804.5,-121 804.5,-121 804.5,-124 801.5,-127 798.5,-127"/>
<text text-anchor="start" x="759" y="-115.8" font-family="Helvetica,sans-Serif" font-size="9.00">index.ts</text>
</a>
</g>
</g>
<!-- src/entities/map/model/click&#45;event&#45;provider.tsx -->
<g id="node9" class="node">
<title>src/entities/map/model/click&#45;event&#45;provider.tsx</title>
<g id="a_node9"><a xlink:href="src/entities/map/model/click-event-provider.tsx" xlink:title="click&#45;event&#45;provider.tsx">
<path fill="#bbfeff" stroke="black" d="M936.5,-58C936.5,-58 826.5,-58 826.5,-58 823.5,-58 820.5,-55 820.5,-52 820.5,-52 820.5,-46 820.5,-46 820.5,-43 823.5,-40 826.5,-40 826.5,-40 936.5,-40 936.5,-40 939.5,-40 942.5,-43 942.5,-46 942.5,-46 942.5,-52 942.5,-52 942.5,-55 939.5,-58 936.5,-58"/>
<text text-anchor="start" x="828.5" y="-46.8" font-family="Helvetica,sans-Serif" font-size="9.00">click&#45;event&#45;provider.tsx</text>
</a>
</g>
</g>
<!-- src/entities/map/index.ts&#45;&gt;src/entities/map/model/click&#45;event&#45;provider.tsx -->
<g id="edge4" class="edge">
<title>src/entities/map/index.ts&#45;&gt;src/entities/map/model/click&#45;event&#45;provider.tsx</title>
<path fill="none" stroke="#000000" stroke-width="2" stroke-opacity="0.200000" d="M781.41,-108.79C785.93,-96.11 795.87,-73.55 812.5,-62 813.27,-61.46 814.06,-60.95 814.86,-60.45"/>
<polygon fill="#000000" fill-opacity="0.200000" stroke="#000000" stroke-width="2" stroke-opacity="0.200000" points="816.08,-62.18 820.35,-57.47 814.07,-58.49 816.08,-62.18"/>
</g>
<!-- src/entities/map/types.ts -->
<g id="node10" class="node">
<title>src/entities/map/types.ts</title>
<g id="a_node10"><a xlink:href="src/entities/map/types.ts" xlink:title="types.ts">
<path fill="#ddfeff" stroke="black" d="M1052.5,-102C1052.5,-102 1010.5,-102 1010.5,-102 1007.5,-102 1004.5,-99 1004.5,-96 1004.5,-96 1004.5,-90 1004.5,-90 1004.5,-87 1007.5,-84 1010.5,-84 1010.5,-84 1052.5,-84 1052.5,-84 1055.5,-84 1058.5,-87 1058.5,-90 1058.5,-90 1058.5,-96 1058.5,-96 1058.5,-99 1055.5,-102 1052.5,-102"/>
<text text-anchor="start" x="1013" y="-90.8" font-family="Helvetica,sans-Serif" font-size="9.00">types.ts</text>
</a>
</g>
</g>
<!-- src/entities/map/index.ts&#45;&gt;src/entities/map/types.ts -->
<g id="edge5" class="edge">
<title>src/entities/map/index.ts&#45;&gt;src/entities/map/types.ts</title>
<path fill="none" stroke="#000000" stroke-opacity="0.200000" d="M791.42,-108.84C797.51,-105.04 805.07,-101.05 812.5,-99 846.44,-89.66 946.08,-90.72 998.08,-92"/>
<polygon fill="none" stroke="#000000" stroke-opacity="0.200000" points="998.13,-94.11 1004.18,-92.16 998.23,-89.91 998.13,-94.11"/>
</g>
<!-- src/entities/map/ui/map.tsx -->
<g id="node11" class="node">
<title>src/entities/map/ui/map.tsx</title>
<g id="a_node11"><a xlink:href="src/entities/map/ui/map.tsx" xlink:title="map.tsx">
<path fill="#bbfeff" stroke="black" d="M902.5,-128C902.5,-128 860.5,-128 860.5,-128 857.5,-128 854.5,-125 854.5,-122 854.5,-122 854.5,-116 854.5,-116 854.5,-113 857.5,-110 860.5,-110 860.5,-110 902.5,-110 902.5,-110 905.5,-110 908.5,-113 908.5,-116 908.5,-116 908.5,-122 908.5,-122 908.5,-125 905.5,-128 902.5,-128"/>
<text text-anchor="start" x="863" y="-116.8" font-family="Helvetica,sans-Serif" font-size="9.00">map.tsx</text>
</a>
</g>
</g>
<!-- src/entities/map/index.ts&#45;&gt;src/entities/map/ui/map.tsx -->
<g id="edge6" class="edge">
<title>src/entities/map/index.ts&#45;&gt;src/entities/map/ui/map.tsx</title>
<path fill="none" stroke="#000000" stroke-width="2" stroke-opacity="0.200000" d="M804.5,-118.25C817.71,-118.38 833.88,-118.54 847.91,-118.68"/>
<polygon fill="#000000" fill-opacity="0.200000" stroke="#000000" stroke-width="2" stroke-opacity="0.200000" points="848.17,-120.78 854.19,-118.74 848.21,-116.58 848.17,-120.78"/>
</g>
<!-- src/entities/map/ui/map.tsx&#45;&gt;src/entities/map/constants.ts -->
<g id="edge7" class="edge">
<title>src/entities/map/ui/map.tsx&#45;&gt;src/entities/map/constants.ts</title>
<path fill="none" stroke="#000000" stroke-width="2" stroke-opacity="0.200000" d="M908.62,-119.71C930.97,-120.31 963.55,-121.19 989.4,-121.89"/>
<polygon fill="#000000" fill-opacity="0.200000" stroke="#000000" stroke-width="2" stroke-opacity="0.200000" points="989.42,-123.99 995.48,-122.05 989.54,-119.79 989.42,-123.99"/>
</g>
<!-- src/entities/map/ui/map.tsx&#45;&gt;src/entities/map/types.ts -->
<g id="edge8" class="edge">
<title>src/entities/map/ui/map.tsx&#45;&gt;src/entities/map/types.ts</title>
<path fill="none" stroke="#000000" stroke-opacity="0.200000" d="M908.62,-114.41C933.51,-110.04 971.07,-103.44 997.91,-98.73"/>
<polygon fill="none" stroke="#000000" stroke-opacity="0.200000" points="998.6,-100.74 1004.14,-97.63 997.87,-96.6 998.6,-100.74"/>
</g>
<!-- src/shared/types.ts -->
<g id="node12" class="node">
<title>src/shared/types.ts</title>
<g id="a_node12"><a xlink:href="src/shared/types.ts" xlink:title="types.ts">
<path fill="#ddfeff" stroke="black" d="M1052.5,-334C1052.5,-334 1010.5,-334 1010.5,-334 1007.5,-334 1004.5,-331 1004.5,-328 1004.5,-328 1004.5,-322 1004.5,-322 1004.5,-319 1007.5,-316 1010.5,-316 1010.5,-316 1052.5,-316 1052.5,-316 1055.5,-316 1058.5,-319 1058.5,-322 1058.5,-322 1058.5,-328 1058.5,-328 1058.5,-331 1055.5,-334 1052.5,-334"/>
<text text-anchor="start" x="1013" y="-322.8" font-family="Helvetica,sans-Serif" font-size="9.00">types.ts</text>
</a>
</g>
</g>
<!-- src/entities/map/ui/map.tsx&#45;&gt;src/shared/types.ts -->
<g id="edge9" class="edge">
<title>src/entities/map/ui/map.tsx&#45;&gt;src/shared/types.ts</title>
<path fill="none" stroke="#000000" stroke-opacity="0.200000" d="M891.94,-128.05C905.69,-141.5 931.64,-167.89 950.5,-193 980.74,-233.27 1009.69,-285.55 1022.95,-310.51"/>
<polygon fill="none" stroke="#000000" stroke-opacity="0.200000" points="1021.17,-311.64 1025.83,-315.96 1024.89,-309.68 1021.17,-311.64"/>
</g>
<!-- src/shared/ui/index.ts -->
<g id="node13" class="node">
<title>src/shared/ui/index.ts</title>
<g id="a_node13"><a xlink:href="src/shared/ui/index.ts" xlink:title="index.ts">
<path fill="#ddfeff" stroke="black" d="M1052.5,-368C1052.5,-368 1010.5,-368 1010.5,-368 1007.5,-368 1004.5,-365 1004.5,-362 1004.5,-362 1004.5,-356 1004.5,-356 1004.5,-353 1007.5,-350 1010.5,-350 1010.5,-350 1052.5,-350 1052.5,-350 1055.5,-350 1058.5,-353 1058.5,-356 1058.5,-356 1058.5,-362 1058.5,-362 1058.5,-365 1055.5,-368 1052.5,-368"/>
<text text-anchor="start" x="1013" y="-356.8" font-family="Helvetica,sans-Serif" font-size="9.00">index.ts</text>
</a>
</g>
</g>
<!-- src/entities/map/ui/map.tsx&#45;&gt;src/shared/ui/index.ts -->
<g id="edge10" class="edge">
<title>src/entities/map/ui/map.tsx&#45;&gt;src/shared/ui/index.ts</title>
<path fill="none" stroke="#000000" stroke-width="2" stroke-opacity="0.200000" d="M895.06,-128.08C911.24,-140.61 938.67,-164.85 950.5,-193 957.09,-208.69 947.25,-333.23 958.5,-346 968.27,-357.09 984.04,-360.79 998.33,-361.52"/>
<polygon fill="#000000" fill-opacity="0.200000" stroke="#000000" stroke-width="2" stroke-opacity="0.200000" points="998.29,-363.62 1004.34,-361.66 998.39,-359.42 998.29,-363.62"/>
</g>
<!-- src/shared/ui/ui&#45;map&#45;container.tsx -->
<g id="node24" class="node">
<title>src/shared/ui/ui&#45;map&#45;container.tsx</title>
<g id="a_node24"><a xlink:href="src/shared/ui/ui-map-container.tsx" xlink:title="ui&#45;map&#45;container.tsx">
<path fill="#bbfeff" stroke="black" d="M1200.5,-368C1200.5,-368 1102.5,-368 1102.5,-368 1099.5,-368 1096.5,-365 1096.5,-362 1096.5,-362 1096.5,-356 1096.5,-356 1096.5,-353 1099.5,-350 1102.5,-350 1102.5,-350 1200.5,-350 1200.5,-350 1203.5,-350 1206.5,-353 1206.5,-356 1206.5,-356 1206.5,-362 1206.5,-362 1206.5,-365 1203.5,-368 1200.5,-368"/>
<text text-anchor="start" x="1104.5" y="-356.8" font-family="Helvetica,sans-Serif" font-size="9.00">ui&#45;map&#45;container.tsx</text>
</a>
</g>
</g>
<!-- src/shared/ui/index.ts&#45;&gt;src/shared/ui/ui&#45;map&#45;container.tsx -->
<g id="edge24" class="edge">
<title>src/shared/ui/index.ts&#45;&gt;src/shared/ui/ui&#45;map&#45;container.tsx</title>
<path fill="none" stroke="#000000" stroke-width="2" stroke-opacity="0.200000" d="M1058.69,-359C1068.08,-359 1079.11,-359 1090.19,-359"/>
<polygon fill="#000000" fill-opacity="0.200000" stroke="#000000" stroke-width="2" stroke-opacity="0.200000" points="1090.35,-361.1 1096.35,-359 1090.35,-356.9 1090.35,-361.1"/>
</g>
<!-- src/shared/ui/ui&#45;marker.tsx -->
<g id="node25" class="node">
<title>src/shared/ui/ui&#45;marker.tsx</title>
<g id="a_node25"><a xlink:href="src/shared/ui/ui-marker.tsx" xlink:title="ui&#45;marker.tsx">
<path fill="#bbfeff" stroke="black" d="M1183.5,-398C1183.5,-398 1119.5,-398 1119.5,-398 1116.5,-398 1113.5,-395 1113.5,-392 1113.5,-392 1113.5,-386 1113.5,-386 1113.5,-383 1116.5,-380 1119.5,-380 1119.5,-380 1183.5,-380 1183.5,-380 1186.5,-380 1189.5,-383 1189.5,-386 1189.5,-386 1189.5,-392 1189.5,-392 1189.5,-395 1186.5,-398 1183.5,-398"/>
<text text-anchor="start" x="1121.5" y="-386.8" font-family="Helvetica,sans-Serif" font-size="9.00">ui&#45;marker.tsx</text>
</a>
</g>
</g>
<!-- src/shared/ui/index.ts&#45;&gt;src/shared/ui/ui&#45;marker.tsx -->
<g id="edge25" class="edge">
<title>src/shared/ui/index.ts&#45;&gt;src/shared/ui/ui&#45;marker.tsx</title>
<path fill="none" stroke="#000000" stroke-width="2" stroke-opacity="0.200000" d="M1058.72,-365.51C1068.12,-367.86 1078.79,-370.53 1088.5,-373 1095.4,-374.75 1102.73,-376.63 1109.84,-378.46"/>
<polygon fill="#000000" fill-opacity="0.200000" stroke="#000000" stroke-width="2" stroke-opacity="0.200000" points="1109.42,-380.52 1115.75,-379.98 1110.47,-376.45 1109.42,-380.52"/>
</g>
<!-- src/shared/ui/ui&#45;spinner&#45;icon.tsx -->
<g id="node26" class="node">
<title>src/shared/ui/ui&#45;spinner&#45;icon.tsx</title>
<g id="a_node26"><a xlink:href="src/shared/ui/ui-spinner-icon.tsx" xlink:title="ui&#45;spinner&#45;icon.tsx">
<path fill="#bbfeff" stroke="black" d="M1195,-428C1195,-428 1108,-428 1108,-428 1105,-428 1102,-425 1102,-422 1102,-422 1102,-416 1102,-416 1102,-413 1105,-410 1108,-410 1108,-410 1195,-410 1195,-410 1198,-410 1201,-413 1201,-416 1201,-416 1201,-422 1201,-422 1201,-425 1198,-428 1195,-428"/>
<text text-anchor="start" x="1110" y="-416.8" font-family="Helvetica,sans-Serif" font-size="9.00">ui&#45;spinner&#45;icon.tsx</text>
</a>
</g>
</g>
<!-- src/shared/ui/index.ts&#45;&gt;src/shared/ui/ui&#45;spinner&#45;icon.tsx -->
<g id="edge26" class="edge">
<title>src/shared/ui/index.ts&#45;&gt;src/shared/ui/ui&#45;spinner&#45;icon.tsx</title>
<path fill="none" stroke="#000000" stroke-width="2" stroke-opacity="0.200000" d="M1058.73,-359.89C1069.24,-361.56 1080.68,-365.23 1088.5,-373 1098.6,-383.02 1086.53,-393.85 1096.5,-404 1097.34,-404.86 1098.23,-405.67 1099.16,-406.44"/>
<polygon fill="#000000" fill-opacity="0.200000" stroke="#000000" stroke-width="2" stroke-opacity="0.200000" points="1097.97,-408.16 1104.08,-409.9 1100.38,-404.73 1097.97,-408.16"/>
</g>
<!-- src/entities/point/index.ts -->
<g id="node14" class="node">
<title>src/entities/point/index.ts</title>
<g id="a_node14"><a xlink:href="src/entities/point/index.ts" xlink:title="index.ts">
<path fill="#ddfeff" stroke="black" d="M798.5,-222C798.5,-222 756.5,-222 756.5,-222 753.5,-222 750.5,-219 750.5,-216 750.5,-216 750.5,-210 750.5,-210 750.5,-207 753.5,-204 756.5,-204 756.5,-204 798.5,-204 798.5,-204 801.5,-204 804.5,-207 804.5,-210 804.5,-210 804.5,-216 804.5,-216 804.5,-219 801.5,-222 798.5,-222"/>
<text text-anchor="start" x="759" y="-210.8" font-family="Helvetica,sans-Serif" font-size="9.00">index.ts</text>
</a>
</g>
</g>
<!-- src/entities/point/ui/point.tsx -->
<g id="node15" class="node">
<title>src/entities/point/ui/point.tsx</title>
<g id="a_node15"><a xlink:href="src/entities/point/ui/point.tsx" xlink:title="point.tsx">
<path fill="#bbfeff" stroke="black" d="M903.5,-222C903.5,-222 859.5,-222 859.5,-222 856.5,-222 853.5,-219 853.5,-216 853.5,-216 853.5,-210 853.5,-210 853.5,-207 856.5,-204 859.5,-204 859.5,-204 903.5,-204 903.5,-204 906.5,-204 909.5,-207 909.5,-210 909.5,-210 909.5,-216 909.5,-216 909.5,-219 906.5,-222 903.5,-222"/>
<text text-anchor="start" x="861.5" y="-210.8" font-family="Helvetica,sans-Serif" font-size="9.00">point.tsx</text>
</a>
</g>
</g>
<!-- src/entities/point/index.ts&#45;&gt;src/entities/point/ui/point.tsx -->
<g id="edge11" class="edge">
<title>src/entities/point/index.ts&#45;&gt;src/entities/point/ui/point.tsx</title>
<path fill="none" stroke="#000000" stroke-width="2" stroke-opacity="0.200000" d="M804.5,-213C817.5,-213 833.38,-213 847.26,-213"/>
<polygon fill="#000000" fill-opacity="0.200000" stroke="#000000" stroke-width="2" stroke-opacity="0.200000" points="847.48,-215.1 853.48,-213 847.48,-210.9 847.48,-215.1"/>
</g>
<!-- src/entities/point/ui/point.tsx&#45;&gt;src/shared/types.ts -->
<g id="edge12" class="edge">
<title>src/entities/point/ui/point.tsx&#45;&gt;src/shared/types.ts</title>
<path fill="none" stroke="#000000" stroke-opacity="0.200000" d="M894.61,-222.17C920.85,-242.02 983,-289.05 1013.3,-311.98"/>
<polygon fill="none" stroke="#000000" stroke-opacity="0.200000" points="1012.17,-313.76 1018.22,-315.71 1014.7,-310.41 1012.17,-313.76"/>
</g>
<!-- src/features/show&#45;click&#45;coords/index.ts -->
<g id="node16" class="node">
<title>src/features/show&#45;click&#45;coords/index.ts</title>
<g id="a_node16"><a xlink:href="src/features/show-click-coords/index.ts" xlink:title="index.ts">
<path fill="#ddfeff" stroke="black" d="M542.5,-229C542.5,-229 500.5,-229 500.5,-229 497.5,-229 494.5,-226 494.5,-223 494.5,-223 494.5,-217 494.5,-217 494.5,-214 497.5,-211 500.5,-211 500.5,-211 542.5,-211 542.5,-211 545.5,-211 548.5,-214 548.5,-217 548.5,-217 548.5,-223 548.5,-223 548.5,-226 545.5,-229 542.5,-229"/>
<text text-anchor="start" x="503" y="-217.8" font-family="Helvetica,sans-Serif" font-size="9.00">index.ts</text>
</a>
</g>
</g>
<!-- src/features/show&#45;click&#45;coords/model/show&#45;click&#45;coords.tsx -->
<g id="node17" class="node">
<title>src/features/show&#45;click&#45;coords/model/show&#45;click&#45;coords.tsx</title>
<g id="a_node17"><a xlink:href="src/features/show-click-coords/model/show-click-coords.tsx" xlink:title="show&#45;click&#45;coords.tsx">
<path fill="#bbfeff" stroke="black" d="M696.5,-169C696.5,-169 595.5,-169 595.5,-169 592.5,-169 589.5,-166 589.5,-163 589.5,-163 589.5,-157 589.5,-157 589.5,-154 592.5,-151 595.5,-151 595.5,-151 696.5,-151 696.5,-151 699.5,-151 702.5,-154 702.5,-157 702.5,-157 702.5,-163 702.5,-163 702.5,-166 699.5,-169 696.5,-169"/>
<text text-anchor="start" x="597.5" y="-157.8" font-family="Helvetica,sans-Serif" font-size="9.00">show&#45;click&#45;coords.tsx</text>
</a>
</g>
</g>
<!-- src/features/show&#45;click&#45;coords/index.ts&#45;&gt;src/features/show&#45;click&#45;coords/model/show&#45;click&#45;coords.tsx -->
<g id="edge13" class="edge">
<title>src/features/show&#45;click&#45;coords/index.ts&#45;&gt;src/features/show&#45;click&#45;coords/model/show&#45;click&#45;coords.tsx</title>
<path fill="none" stroke="#000000" stroke-width="2" stroke-opacity="0.200000" d="M541.11,-210.89C562.45,-200.43 597.53,-183.25 620.94,-171.79"/>
<polygon fill="#000000" fill-opacity="0.200000" stroke="#000000" stroke-width="2" stroke-opacity="0.200000" points="622.16,-173.53 626.62,-169 620.31,-169.76 622.16,-173.53"/>
</g>
<!-- src/features/show&#45;click&#45;coords/ui/coords&#45;popup.tsx -->
<g id="node18" class="node">
<title>src/features/show&#45;click&#45;coords/ui/coords&#45;popup.tsx</title>
<g id="a_node18"><a xlink:href="src/features/show-click-coords/ui/coords-popup.tsx" xlink:title="coords&#45;popup.tsx">
<path fill="#bbfeff" stroke="black" d="M687.5,-229C687.5,-229 604.5,-229 604.5,-229 601.5,-229 598.5,-226 598.5,-223 598.5,-223 598.5,-217 598.5,-217 598.5,-214 601.5,-211 604.5,-211 604.5,-211 687.5,-211 687.5,-211 690.5,-211 693.5,-214 693.5,-217 693.5,-217 693.5,-223 693.5,-223 693.5,-226 690.5,-229 687.5,-229"/>
<text text-anchor="start" x="606.5" y="-217.8" font-family="Helvetica,sans-Serif" font-size="9.00">coords&#45;popup.tsx</text>
</a>
</g>
</g>
<!-- src/features/show&#45;click&#45;coords/index.ts&#45;&gt;src/features/show&#45;click&#45;coords/ui/coords&#45;popup.tsx -->
<g id="edge14" class="edge">
<title>src/features/show&#45;click&#45;coords/index.ts&#45;&gt;src/features/show&#45;click&#45;coords/ui/coords&#45;popup.tsx</title>
<path fill="none" stroke="#000000" stroke-width="2" stroke-opacity="0.200000" d="M548.78,-220C561.45,-220 577.13,-220 592.12,-220"/>
<polygon fill="#000000" fill-opacity="0.200000" stroke="#000000" stroke-width="2" stroke-opacity="0.200000" points="592.49,-222.1 598.49,-220 592.49,-217.9 592.49,-222.1"/>
</g>
<!-- src/features/show&#45;click&#45;coords/model/show&#45;click&#45;coords.tsx&#45;&gt;src/entities/map/index.ts -->
<g id="edge15" class="edge">
<title>src/features/show&#45;click&#45;coords/model/show&#45;click&#45;coords.tsx&#45;&gt;src/entities/map/index.ts</title>
<path fill="none" stroke="#000000" stroke-width="2" stroke-opacity="0.200000" d="M674.78,-150.99C695.16,-144.38 722.89,-135.39 744.25,-128.46"/>
<polygon fill="#000000" fill-opacity="0.200000" stroke="#000000" stroke-width="2" stroke-opacity="0.200000" points="745.03,-130.41 750.09,-126.56 743.74,-126.42 745.03,-130.41"/>
</g>
<!-- src/features/show&#45;click&#45;coords/model/show&#45;click&#45;coords.tsx&#45;&gt;src/shared/types.ts -->
<g id="edge16" class="edge">
<title>src/features/show&#45;click&#45;coords/model/show&#45;click&#45;coords.tsx&#45;&gt;src/shared/types.ts</title>
<path fill="none" stroke="#000000" stroke-opacity="0.200000" d="M681.96,-169.1C698.14,-175.16 716.06,-184.87 726.5,-200 736.27,-214.16 722.69,-264.49 734.5,-277 770.06,-314.66 929.19,-322.78 998.29,-324.52"/>
<polygon fill="none" stroke="#000000" stroke-opacity="0.200000" points="998.25,-326.62 1004.3,-324.66 998.35,-322.42 998.25,-326.62"/>
</g>
<!-- src/features/show&#45;click&#45;coords/ui/coords&#45;popup.tsx&#45;&gt;src/shared/types.ts -->
<g id="edge17" class="edge">
<title>src/features/show&#45;click&#45;coords/ui/coords&#45;popup.tsx&#45;&gt;src/shared/types.ts</title>
<path fill="none" stroke="#000000" stroke-opacity="0.200000" d="M652.08,-229.16C663.66,-248.98 694.16,-295.54 734.5,-314 780.59,-335.09 931.23,-330.22 998.06,-326.87"/>
<polygon fill="none" stroke="#000000" stroke-opacity="0.200000" points="998.38,-328.95 1004.26,-326.55 998.16,-324.76 998.38,-328.95"/>
</g>
<!-- src/shared/lib/index.ts -->
<g id="node20" class="node">
<title>src/shared/lib/index.ts</title>
<g id="a_node20"><a xlink:href="src/shared/lib/index.ts" xlink:title="index.ts">
<path fill="#ddfeff" stroke="black" d="M1052.5,-488C1052.5,-488 1010.5,-488 1010.5,-488 1007.5,-488 1004.5,-485 1004.5,-482 1004.5,-482 1004.5,-476 1004.5,-476 1004.5,-473 1007.5,-470 1010.5,-470 1010.5,-470 1052.5,-470 1052.5,-470 1055.5,-470 1058.5,-473 1058.5,-476 1058.5,-476 1058.5,-482 1058.5,-482 1058.5,-485 1055.5,-488 1052.5,-488"/>
<text text-anchor="start" x="1013" y="-476.8" font-family="Helvetica,sans-Serif" font-size="9.00">index.ts</text>
</a>
</g>
</g>
<!-- src/pages/home&#45;page/home&#45;page.tsx&#45;&gt;src/shared/lib/index.ts -->
<g id="edge18" class="edge">
<title>src/pages/home&#45;page/home&#45;page.tsx&#45;&gt;src/shared/lib/index.ts</title>
<path fill="none" stroke="#000000" stroke-width="2" stroke-opacity="0.200000" d="M254.44,-373.09C290.4,-386.49 362.5,-410 426,-410 426,-410 426,-410 778.5,-410 864.45,-410 961.23,-447.81 1005.72,-467.45"/>
<polygon fill="#000000" fill-opacity="0.200000" stroke="#000000" stroke-width="2" stroke-opacity="0.200000" points="1005.05,-469.45 1011.39,-469.98 1006.76,-465.62 1005.05,-469.45"/>
</g>
<!-- src/widgets/map/index.ts -->
<g id="node21" class="node">
<title>src/widgets/map/index.ts</title>
<g id="a_node21"><a xlink:href="src/widgets/map/index.ts" xlink:title="index.ts">
<path fill="#ddfeff" stroke="black" d="M364.5,-349C364.5,-349 322.5,-349 322.5,-349 319.5,-349 316.5,-346 316.5,-343 316.5,-343 316.5,-337 316.5,-337 316.5,-334 319.5,-331 322.5,-331 322.5,-331 364.5,-331 364.5,-331 367.5,-331 370.5,-334 370.5,-337 370.5,-337 370.5,-343 370.5,-343 370.5,-346 367.5,-349 364.5,-349"/>
<text text-anchor="start" x="325" y="-337.8" font-family="Helvetica,sans-Serif" font-size="9.00">index.ts</text>
</a>
</g>
</g>
<!-- src/pages/home&#45;page/home&#45;page.tsx&#45;&gt;src/widgets/map/index.ts -->
<g id="edge19" class="edge">
<title>src/pages/home&#45;page/home&#45;page.tsx&#45;&gt;src/widgets/map/index.ts</title>
<path fill="none" stroke="#000000" stroke-width="2" stroke-opacity="0.200000" d="M272.52,-355.13C285.03,-352.43 298.61,-349.49 310.44,-346.93"/>
<polygon fill="#000000" fill-opacity="0.200000" stroke="#000000" stroke-width="2" stroke-opacity="0.200000" points="311.03,-348.95 316.45,-345.63 310.14,-344.85 311.03,-348.95"/>
</g>
<!-- src/shared/lib/prisma.ts -->
<g id="node23" class="node">
<title>src/shared/lib/prisma.ts</title>
<g id="a_node23"><a xlink:href="src/shared/lib/prisma.ts" xlink:title="prisma.ts">
<path fill="#ddfeff" stroke="black" d="M1175,-488C1175,-488 1128,-488 1128,-488 1125,-488 1122,-485 1122,-482 1122,-482 1122,-476 1122,-476 1122,-473 1125,-470 1128,-470 1128,-470 1175,-470 1175,-470 1178,-470 1181,-473 1181,-476 1181,-476 1181,-482 1181,-482 1181,-485 1178,-488 1175,-488"/>
<text text-anchor="start" x="1130" y="-476.8" font-family="Helvetica,sans-Serif" font-size="9.00">prisma.ts</text>
</a>
</g>
</g>
<!-- src/shared/lib/index.ts&#45;&gt;src/shared/lib/prisma.ts -->
<g id="edge23" class="edge">
<title>src/shared/lib/index.ts&#45;&gt;src/shared/lib/prisma.ts</title>
<path fill="none" stroke="#000000" stroke-width="2" stroke-opacity="0.200000" d="M1058.69,-479C1075.52,-479 1097.59,-479 1115.87,-479"/>
<polygon fill="#000000" fill-opacity="0.200000" stroke="#000000" stroke-width="2" stroke-opacity="0.200000" points="1115.91,-481.1 1121.91,-479 1115.91,-476.9 1115.91,-481.1"/>
</g>
<!-- src/widgets/map/map&#45;widget.tsx -->
<g id="node29" class="node">
<title>src/widgets/map/map&#45;widget.tsx</title>
<g id="a_node29"><a xlink:href="src/widgets/map/map-widget.tsx" xlink:title="map&#45;widget.tsx">
<path fill="#bbfeff" stroke="black" d="M464.5,-349C464.5,-349 389.5,-349 389.5,-349 386.5,-349 383.5,-346 383.5,-343 383.5,-343 383.5,-337 383.5,-337 383.5,-334 386.5,-331 389.5,-331 389.5,-331 464.5,-331 464.5,-331 467.5,-331 470.5,-334 470.5,-337 470.5,-337 470.5,-343 470.5,-343 470.5,-346 467.5,-349 464.5,-349"/>
<text text-anchor="start" x="391.5" y="-337.8" font-family="Helvetica,sans-Serif" font-size="9.00">map&#45;widget.tsx</text>
</a>
</g>
</g>
<!-- src/widgets/map/index.ts&#45;&gt;src/widgets/map/map&#45;widget.tsx -->
<g id="edge28" class="edge">
<title>src/widgets/map/index.ts&#45;&gt;src/widgets/map/map&#45;widget.tsx</title>
<path fill="none" stroke="#000000" stroke-width="2" stroke-dasharray="5,2" stroke-opacity="0.200000" d="M370.74,-340C372.91,-340 375.15,-340 377.42,-340"/>
<polygon fill="#000000" fill-opacity="0.200000" stroke="#000000" stroke-width="2" stroke-opacity="0.200000" points="377.5,-342.1 383.5,-340 377.5,-337.9 377.5,-342.1"/>
</g>
<!-- src/pages/loading&#45;page/loading&#45;page.tsx&#45;&gt;src/shared/ui/index.ts -->
<g id="edge22" class="edge">
<title>src/pages/loading&#45;page/loading&#45;page.tsx&#45;&gt;src/shared/ui/index.ts</title>
<path fill="none" stroke="#000000" stroke-width="2" stroke-opacity="0.200000" d="M276.7,-424C316.12,-424 374.84,-424 426,-424 426,-424 426,-424 778.5,-424 861.65,-424 877.62,-392.29 958.5,-373 971.49,-369.9 985.91,-366.99 998.42,-364.64"/>
<polygon fill="#000000" fill-opacity="0.200000" stroke="#000000" stroke-width="2" stroke-opacity="0.200000" points="998.88,-366.69 1004.39,-363.53 998.11,-362.56 998.88,-366.69"/>
</g>
<!-- src/shared/ui/layouts/ui&#45;main&#45;layout.tsx -->
<g id="node27" class="node">
<title>src/shared/ui/layouts/ui&#45;main&#45;layout.tsx</title>
<g id="a_node27"><a xlink:href="src/shared/ui/layouts/ui-main-layout.tsx" xlink:title="no&#45;orphans">
<path fill="#ccffcc" stroke="orange" d="M1074.5,-402C1074.5,-402 988.5,-402 988.5,-402 985.5,-402 982.5,-399 982.5,-396 982.5,-396 982.5,-390 982.5,-390 982.5,-387 985.5,-384 988.5,-384 988.5,-384 1074.5,-384 1074.5,-384 1077.5,-384 1080.5,-387 1080.5,-390 1080.5,-390 1080.5,-396 1080.5,-396 1080.5,-399 1077.5,-402 1074.5,-402"/>
<text text-anchor="start" x="990.5" y="-390.8" font-family="Helvetica,sans-Serif" font-size="9.00" fill="orange">ui&#45;main&#45;layout.tsx</text>
</a>
</g>
</g>
<!-- src/widgets/map/constants.ts -->
<g id="node28" class="node">
<title>src/widgets/map/constants.ts</title>
<g id="a_node28"><a xlink:href="src/widgets/map/constants.ts" xlink:title="constants.ts">
<path fill="#ddfeff" stroke="black" d="M551.5,-349C551.5,-349 491.5,-349 491.5,-349 488.5,-349 485.5,-346 485.5,-343 485.5,-343 485.5,-337 485.5,-337 485.5,-334 488.5,-331 491.5,-331 491.5,-331 551.5,-331 551.5,-331 554.5,-331 557.5,-334 557.5,-337 557.5,-337 557.5,-343 557.5,-343 557.5,-346 554.5,-349 551.5,-349"/>
<text text-anchor="start" x="493.5" y="-337.8" font-family="Helvetica,sans-Serif" font-size="9.00">constants.ts</text>
</a>
</g>
</g>
<!-- src/widgets/map/constants.ts&#45;&gt;src/shared/types.ts -->
<g id="edge27" class="edge">
<title>src/widgets/map/constants.ts&#45;&gt;src/shared/types.ts</title>
<path fill="none" stroke="#000000" stroke-opacity="0.200000" d="M557.76,-340.16C630.99,-340.31 804.85,-339.72 950.5,-332 966.21,-331.17 983.62,-329.71 998.18,-328.34"/>
<polygon fill="none" stroke="#000000" stroke-opacity="0.200000" points="998.46,-330.42 1004.23,-327.76 998.06,-326.24 998.46,-330.42"/>
</g>
<!-- src/widgets/map/map&#45;widget.tsx&#45;&gt;src/entities/map/index.ts -->
<g id="edge30" class="edge">
<title>src/widgets/map/map&#45;widget.tsx&#45;&gt;src/entities/map/index.ts</title>
<path fill="none" stroke="#000000" stroke-width="2" stroke-opacity="0.200000" d="M428.8,-330.86C432.2,-294.16 446.83,-158.13 478.5,-132 555.17,-68.75 684.36,-92.46 744.24,-108.3"/>
<polygon fill="#000000" fill-opacity="0.200000" stroke="#000000" stroke-width="2" stroke-opacity="0.200000" points="743.81,-110.36 750.15,-109.9 744.91,-106.31 743.81,-110.36"/>
</g>
<!-- src/widgets/map/map&#45;widget.tsx&#45;&gt;src/features/show&#45;click&#45;coords/index.ts -->
<g id="edge31" class="edge">
<title>src/widgets/map/map&#45;widget.tsx&#45;&gt;src/features/show&#45;click&#45;coords/index.ts</title>
<path fill="none" stroke="#000000" stroke-width="2" stroke-opacity="0.200000" d="M434.95,-330.98C450.96,-310.22 490.5,-258.92 509.69,-234.02"/>
<polygon fill="#000000" fill-opacity="0.200000" stroke="#000000" stroke-width="2" stroke-opacity="0.200000" points="511.47,-235.16 513.47,-229.12 508.14,-232.59 511.47,-235.16"/>
</g>
<!-- src/widgets/map/map&#45;widget.tsx&#45;&gt;src/widgets/map/constants.ts -->
<g id="edge29" class="edge">
<title>src/widgets/map/map&#45;widget.tsx&#45;&gt;src/widgets/map/constants.ts</title>
<path fill="none" stroke="#000000" stroke-width="2" stroke-opacity="0.200000" d="M470.73,-340C473.5,-340 476.29,-340 479.05,-340"/>
<polygon fill="#000000" fill-opacity="0.200000" stroke="#000000" stroke-width="2" stroke-opacity="0.200000" points="479.43,-342.1 485.43,-340 479.43,-337.9 479.43,-342.1"/>
</g>
</g>
</svg>
